{"title":"Avatar DVDScr xvid - IMAGiNE","uid":5334092,"size":2238393786,"categoryP":"video","categoryS":"movies","magnet":"?xt=urn:btih:cada0f81c5ab5eb7505976c260c8b20501248e35&amp;dn=Avatar+DVDScr+xvid+-+IMAGiNE&amp;tr=udp%3A%2F%2Ftracker.openbittorrent.com%3A80&amp;tr=udp%3A%2F%2Fopen.demonii.com%3A1337&amp;tr=udp%3A%2F%2Ftracker.coppersurfer.tk%3A6969&amp;tr=udp%3A%2F%2Fexodus.desync.com%3A6969","seeders":0,"leechers":1,"uploader":"TvTeam","files":-1,"time":1265268552,"description":" &lt;a href=&quot;http://www.torrentday.com&quot; rel=&quot;nofollow&quot; target=&quot;_NEW&quot;&gt;http://www.torrentday.com&lt;/a&gt; - Your Key To The Scene.\n\nwe are the most on-time tracker around the globe, You can download releases whenever they release out by group uploaders. no Wait Time.\n\n\nTorrentDay is a private tracker torrent website, which is totally free, safe and fast.\n\n\nHigher Speed Download is available at: TorrentDay - Your Gateway To The Scene.\n\n...................................NFO:....................................\n\n\n\n\n                     Avatar DVDScr xvid - IMAGiNE\n\n                                \n\n\nRipper ...........: IMAGiNE                                      IMDB Rating.......:8.6/10                              \nVideo Codec.......: XVID                                         Release Date......:2010-12-31\nAudio Codec.......:AC3                                           Theatre Date......:12/18/09\nAudio Bitrate.....:192                                           Runtime...........:162 mn\nSubtitles.........:Harcoded Where Nedded                                           Language..........:ENGLISH\nResolution...... 656 x 368                                       IMDB URL..........:http://www.imdb.com/title/tt0499549/\n\n\n[color=yellow]DETAILS:[/color]\n\nFormat                           : AVI\nFormat/Info                      : Audio Video Interleave\nFormat profile                   : OpenDML\nFile size                        : 2.06 GiB\nDuration                         : 2h 36mn\nOverall bit rate                 : 1 876 Kbps\nWriting application              : VirtualDubMod 1.5.10.2 (build 2540/release)\nWriting library                  : VirtualDubMod build 2540/release\n\nVideo\nID                               : 0\nFormat                           : MPEG-4 Visual\nFormat profile                   : Advanced Simple@L5\nFormat settings, BVOP            : Yes\nFormat settings, QPel            : No\nFormat settings, GMC             : No warppoints\nFormat settings, Matrix          : Default (MPEG)\nCodec ID                         : XVID\nCodec ID/Hint                    : XviD\nDuration                         : 2h 36mn\nBit rate                         : 1 672 Kbps\nWidth                            : 656 pixels\nHeight                           : 368 pixels\nDisplay aspect ratio             : 16:9\nFrame rate                       : 23.976 fps\nResolution                       : 8 bits\nColorimetry                      : 4:2:0\nScan type                        : Progressive\nBits/(Pixel*Frame)               : 0.289\nStream size                      : 1.83 GiB (89%)\nWriting library                  : XviD 1.2.1 (UTC 2008-12-04)\n\nAudio\nID                               : 1\nFormat                           : AC-3\nFormat/Info                      : Audio Coding 3\nCodec ID                         : 2000\nDuration                         : 2h 36mn\nBit rate mode                    : Constant\nBit rate                         : 192 Kbps\nChannel(s)                       : 2 channels\nChannel positions                : L R\nSampling rate                    : 48.0 KHz\nStream size                      : 216 MiB (10%)\nAlignment                        : Split accross interleaves\nInterleave, duration             : 42 ms (1.00 video frame)\nInterleave, preload duration     : 500 ms\n\n\n\n\n[color=yellow]NOTES:[/color]\n\nIMAGiNE bringing you another release.....\n\nWe found the dvd scr.we did our normal stuff to it saturation,contrast and brightness.but it was very little as the original file was decent.","torrent":{"xt":"urn:btih:cada0f81c5ab5eb7505976c260c8b20501248e35","amp;dn":"Avatar+DVDScr+xvid+-+IMAGiNE","amp;tr":["udp%3A%2F%2Ftracker.openbittorrent.com%3A80","udp%3A%2F%2Fopen.demonii.com%3A1337","udp%3A%2F%2Ftracker.coppersurfer.tk%3A6969","udp%3A%2F%2Fexodus.desync.com%3A6969"],"infoHash":"cada0f81c5ab5eb7505976c260c8b20501248e35","infoHashBuffer":{"type":"Buffer","data":[202,218,15,129,197,171,94,183,80,89,118,194,96,200,178,5,1,36,142,53]},"announce":[],"urlList":[]}}